{
    "asset" : {
        "generator" : "Khronos glTF Blender I/O v3.4.50",
        "version" : "2.0"
    },
    "scene" : 0,
    "scenes" : [
        {
            "name" : "Scene",
            "nodes" : [
                0
            ]
        }
    ],
    "nodes" : [
        {
            "mesh" : 0,
            "name" : "Merged"
        }
    ],
    "animations" : [
        {
            "channels" : [
                {
                    "sampler" : 0,
                    "target" : {
                        "node" : 0,
                        "path" : "translation"
                    }
                },
                {
                    "sampler" : 1,
                    "target" : {
                        "node" : 0,
                        "path" : "rotation"
                    }
                },
                {
                    "sampler" : 2,
                    "target" : {
                        "node" : 0,
                        "path" : "scale"
                    }
                }
            ],
            "name" : "Merged",
            "samplers" : [
                {
                    "input" : 5,
                    "interpolation" : "LINEAR",
                    "output" : 6
                },
                {
                    "input" : 5,
                    "interpolation" : "LINEAR",
                    "output" : 7
                },
                {
                    "input" : 5,
                    "interpolation" : "LINEAR",
                    "output" : 8
                }
            ]
        }
    ],
    "materials" : [
        {
            "doubleSided" : true,
            "emissiveFactor" : [
                0.9999998807907104,
                0.9999998807907104,
                0.9999998807907104
            ],
            "emissiveTexture" : {
                "index" : 0
            },
            "name" : "Material",
            "normalTexture" : {
                "index" : 1
            },
            "pbrMetallicRoughness" : {
                "baseColorTexture" : {
                    "index" : 2
                },
                "metallicRoughnessTexture" : {
                    "index" : 3
                }
            }
        }
    ],
    "meshes" : [
        {
            "name" : "Cube.045",
            "primitives" : [
                {
                    "attributes" : {
                        "COLOR_0" : 0,
                        "POSITION" : 1,
                        "TEXCOORD_0" : 2,
                        "NORMAL" : 3
                    },
                    "indices" : 4,
                    "material" : 0
                }
            ]
        }
    ],
    "textures" : [
        {
            "sampler" : 0,
            "source" : 0
        },
        {
            "sampler" : 0,
            "source" : 1
        },
        {
            "sampler" : 0,
            "source" : 2
        },
        {
            "sampler" : 0,
            "source" : 3
        }
    ],
    "images" : [
        {
            "mimeType" : "image/png",
            "name" : "Heron_Lissus2_MergedMat_Emissive",
            "uri" : "Heron_Lissus2_MergedMat_Emissive.png"
        },
        {
            "mimeType" : "image/png",
            "name" : "Heron_Lissus2_MergedMat_Normal",
            "uri" : "Heron_Lissus2_MergedMat_Normal.png"
        },
        {
            "mimeType" : "image/png",
            "name" : "Heron_Lissus2_MergedMat_BaseColor",
            "uri" : "Heron_Lissus2_MergedMat_BaseColor.png"
        },
        {
            "mimeType" : "image/png",
            "name" : "Heron_Lissus2_MergedMat_Metallic-Heron_Lissus2_MergedMat_Roughness",
            "uri" : "Heron_Lissus2_MergedMat_Metallic-Heron_Lissus2_MergedMat_Roughness.png"
        }
    ],
    "accessors" : [
        {
            "bufferView" : 0,
            "componentType" : 5123,
            "count" : 150134,
            "normalized" : true,
            "type" : "VEC4"
        },
        {
            "bufferView" : 1,
            "componentType" : 5126,
            "count" : 150134,
            "max" : [
                1.6203469038009644,
                3.2076683044433594,
                0.20183314383029938
            ],
            "min" : [
                -1.620347023010254,
                -0.013141155242919922,
                -0.3424655497074127
            ],
            "type" : "VEC3"
        },
        {
            "bufferView" : 2,
            "componentType" : 5126,
            "count" : 150134,
            "type" : "VEC2"
        },
        {
            "bufferView" : 3,
            "componentType" : 5126,
            "count" : 150134,
            "type" : "VEC3"
        },
        {
            "bufferView" : 4,
            "componentType" : 5125,
            "count" : 561852,
            "type" : "SCALAR"
        },
        {
            "bufferView" : 5,
            "componentType" : 5126,
            "count" : 26,
            "max" : [
                1.0833333333333333
            ],
            "min" : [
                0.041666666666666664
            ],
            "type" : "SCALAR"
        },
        {
            "bufferView" : 6,
            "componentType" : 5126,
            "count" : 26,
            "type" : "VEC3"
        },
        {
            "bufferView" : 7,
            "componentType" : 5126,
            "count" : 26,
            "type" : "VEC4"
        },
        {
            "bufferView" : 8,
            "componentType" : 5126,
            "count" : 26,
            "type" : "VEC3"
        }
    ],
    "bufferViews" : [
        {
            "buffer" : 0,
            "byteLength" : 1201072,
            "byteOffset" : 0,
            "target" : 34962
        },
        {
            "buffer" : 0,
            "byteLength" : 1801608,
            "byteOffset" : 1201072,
            "target" : 34962
        },
        {
            "buffer" : 0,
            "byteLength" : 1201072,
            "byteOffset" : 3002680,
            "target" : 34962
        },
        {
            "buffer" : 0,
            "byteLength" : 1801608,
            "byteOffset" : 4203752,
            "target" : 34962
        },
        {
            "buffer" : 0,
            "byteLength" : 2247408,
            "byteOffset" : 6005360,
            "target" : 34963
        },
        {
            "buffer" : 0,
            "byteLength" : 104,
            "byteOffset" : 8252768
        },
        {
            "buffer" : 0,
            "byteLength" : 312,
            "byteOffset" : 8252872
        },
        {
            "buffer" : 0,
            "byteLength" : 416,
            "byteOffset" : 8253184
        },
        {
            "buffer" : 0,
            "byteLength" : 312,
            "byteOffset" : 8253600
        }
    ],
    "samplers" : [
        {
            "magFilter" : 9729,
            "minFilter" : 9987
        }
    ],
    "buffers" : [
        {
            "byteLength" : 8253912,
            "uri" : "Heron_Lissus_backupdownload.bin"
        }
    ]
}
